<svg width="100" height="100" viewBox="0 0 100 100" fill="none" xmlns="http://www.w3.org/2000/svg">
<circle cx="50" cy="49.9999" r="50" fill="#6EBEE6"/>
<circle cx="50" cy="49.9999" r="50" fill="url(#paint0_linear)"/>
<path d="M52.0837 43.75H47.917V39.5833C47.917 39.0308 47.6975 38.5009 47.3068 38.1102C46.9161 37.7195 46.3862 37.5 45.8337 37.5C45.2811 37.5 44.7512 37.7195 44.3605 38.1102C43.9698 38.5009 43.7503 39.0308 43.7503 39.5833V43.75H39.5837C39.0311 43.75 38.5012 43.9695 38.1105 44.3602C37.7198 44.7509 37.5003 45.2808 37.5003 45.8333C37.5003 46.3858 37.7198 46.9157 38.1105 47.3064C38.5012 47.6971 39.0311 47.9166 39.5837 47.9166H43.7503V52.0833C43.7503 52.6358 43.9698 53.1657 44.3605 53.5564C44.7512 53.9471 45.2811 54.1666 45.8337 54.1666C46.3862 54.1666 46.9161 53.9471 47.3068 53.5564C47.6975 53.1657 47.917 52.6358 47.917 52.0833V47.9166H52.0837C52.6362 47.9166 53.1661 47.6971 53.5568 47.3064C53.9475 46.9157 54.167 46.3858 54.167 45.8333C54.167 45.2808 53.9475 44.7509 53.5568 44.3602C53.1661 43.9695 52.6362 43.75 52.0837 43.75ZM62.5003 56.25V35.4166C62.5003 33.759 61.8419 32.1693 60.6697 30.9972C59.4976 29.8251 57.9079 29.1666 56.2503 29.1666H35.417C33.7594 29.1666 32.1697 29.8251 30.9976 30.9972C29.8255 32.1693 29.167 33.759 29.167 35.4166V56.25C29.167 57.9076 29.8255 59.4973 30.9976 60.6694C32.1697 61.8415 33.7594 62.5 35.417 62.5H56.2503C57.9079 62.5 59.4976 61.8415 60.6697 60.6694C61.8419 59.4973 62.5003 57.9076 62.5003 56.25ZM33.3337 56.25V35.4166C33.3337 34.8641 33.5532 34.3342 33.9439 33.9435C34.3346 33.5528 34.8645 33.3333 35.417 33.3333H56.2503C56.8029 33.3333 57.3328 33.5528 57.7235 33.9435C58.1142 34.3342 58.3337 34.8641 58.3337 35.4166V56.25C58.3337 56.8025 58.1142 57.3324 57.7235 57.7231C57.3328 58.1138 56.8029 58.3333 56.2503 58.3333H35.417C34.8645 58.3333 34.3346 58.1138 33.9439 57.7231C33.5532 57.3324 33.3337 56.8025 33.3337 56.25ZM68.7503 37.5C68.1978 37.5 67.6679 37.7195 67.2772 38.1102C66.8865 38.5009 66.667 39.0308 66.667 39.5833V60.4166C66.667 62.0742 66.0085 63.6639 64.8364 64.836C63.6643 66.0081 62.0746 66.6666 60.417 66.6666H39.5837C39.0311 66.6666 38.5012 66.8861 38.1105 67.2768C37.7198 67.6675 37.5003 68.1974 37.5003 68.75C37.5003 69.3025 37.7198 69.8324 38.1105 70.2231C38.5012 70.6138 39.0311 70.8333 39.5837 70.8333H60.417C63.1797 70.8333 65.8292 69.7358 67.7827 67.7823C69.7362 65.8288 70.8337 63.1793 70.8337 60.4166V39.5833C70.8337 39.0308 70.6142 38.5009 70.2235 38.1102C69.8328 37.7195 69.3029 37.5 68.7503 37.5Z" fill="white"/>
<defs>
<linearGradient id="paint0_linear" x1="-6.21469" y1="12.0689" x2="122.105" y2="18.4943" gradientUnits="userSpaceOnUse">
<stop stop-color="#9C87C8"/>
<stop offset="1" stop-color="white" stop-opacity="0"/>
</linearGradient>
</defs>
</svg>
