<svg width="100" height="100" viewBox="0 0 100 100" fill="none" xmlns="http://www.w3.org/2000/svg">
<circle cx="50" cy="49.9999" r="50" fill="#6EBEE6"/>
<circle cx="50" cy="49.9999" r="50" fill="url(#paint0_linear)"/>
<path d="M50.0003 66.6666C59.167 66.6666 66.667 59.1666 66.667 50C66.667 40.8333 59.167 33.3333 50.0003 33.3333C40.8337 33.3333 33.3337 40.8333 33.3337 50C33.3337 59.1666 40.8337 66.6666 50.0003 66.6666ZM50.0003 29.1666C61.4587 29.1666 70.8337 38.5416 70.8337 50C70.8337 61.4583 61.4587 70.8333 50.0003 70.8333C38.542 70.8333 29.167 61.4583 29.167 50C29.167 38.5416 38.542 29.1666 50.0003 29.1666ZM60.417 48.9583V52.0833H47.917V39.5833H51.042V48.9583H60.417Z" fill="white"/>
<defs>
<linearGradient id="paint0_linear" x1="-6.21469" y1="12.0689" x2="122.105" y2="18.4943" gradientUnits="userSpaceOnUse">
<stop stop-color="#9C87C8"/>
<stop offset="1" stop-color="white" stop-opacity="0"/>
</linearGradient>
</defs>
</svg>
