<svg width="100" height="100" viewBox="0 0 100 100" fill="none" xmlns="http://www.w3.org/2000/svg">
<circle cx="50" cy="49.9999" r="50" fill="#6EBEE6"/>
<circle cx="50" cy="49.9999" r="50" fill="url(#paint0_linear)"/>
<path d="M68.2938 31.7062C68.4393 31.8514 68.5547 32.0238 68.6335 32.2136C68.7122 32.4035 68.7528 32.607 68.7528 32.8125C68.7528 33.018 68.7122 33.2215 68.6335 33.4113C68.5547 33.6012 68.4393 33.7736 68.2938 33.9187L58.4594 43.75H64.0687C64.4832 43.75 64.8806 43.9146 65.1736 44.2076C65.4666 44.5007 65.6312 44.8981 65.6312 45.3125C65.6312 45.7269 65.4666 46.1243 65.1736 46.4173C64.8806 46.7104 64.4832 46.875 64.0687 46.875H54.6875C54.2731 46.875 53.8757 46.7104 53.5826 46.4173C53.2896 46.1243 53.125 45.7269 53.125 45.3125V35.9375C53.125 35.5231 53.2896 35.1257 53.5826 34.8326C53.8757 34.5396 54.2731 34.375 54.6875 34.375C55.1019 34.375 55.4993 34.5396 55.7924 34.8326C56.0854 35.1257 56.25 35.5231 56.25 35.9375V41.5406L66.0812 31.7062C66.2264 31.5607 66.3988 31.4453 66.5886 31.3665C66.7785 31.2877 66.982 31.2472 67.1875 31.2472C67.393 31.2472 67.5965 31.2877 67.7864 31.3665C67.9762 31.4453 68.1486 31.5607 68.2938 31.7062Z" fill="white"/>
<path d="M38.6681 31.625C39.9508 31.1427 41.3679 31.1596 42.6388 31.6724C43.9096 32.1851 44.9417 33.1563 45.5306 34.3937L47.3556 38.2312C47.7374 39.0317 47.8843 39.9241 47.7792 40.8047C47.6741 41.6853 47.3213 42.5181 46.7619 43.2062L43.8056 46.8312C44.0751 48.2377 44.5767 49.5895 45.29 50.8312C46.0183 52.0563 46.9443 53.1523 48.0306 54.075L52.7369 53.2125C53.5001 53.0721 54.2862 53.1233 55.0247 53.3617C55.7632 53.6 56.431 54.018 56.9681 54.5781L59.4962 57.2156C59.9952 57.7367 60.3861 58.3515 60.6464 59.0244C60.9067 59.6972 61.0313 60.415 61.013 61.1363C60.9947 61.8575 60.8339 62.568 60.5398 63.2268C60.2457 63.8857 59.8241 64.4798 59.2994 64.975L58.3744 65.85C54.8556 69.1718 49.3744 69.8812 45.4556 66.6218C42.5181 64.1781 38.99 60.7468 36.3369 56.5812C33.3994 51.9656 32.0244 46.4875 31.3744 42.3625C30.6306 37.6562 33.6244 33.5187 37.8431 31.9343L38.6681 31.6218V31.625ZM47.6119 55.7406L46.7087 57.0156L46.7025 57.0125L46.6931 57.0062L46.665 56.9843C46.528 56.8863 46.3955 56.782 46.2681 56.6718C44.8011 55.4778 43.557 54.0337 42.5931 52.4062C41.5632 50.6178 40.8883 48.6474 40.6056 46.6031L40.5994 46.5625V46.5468L42.1525 46.3843L40.5994 46.5406C40.558 46.1289 40.6816 45.7175 40.9431 45.3968L44.3369 41.2281C44.5233 40.9991 44.641 40.722 44.6764 40.4289C44.7118 40.1358 44.6634 39.8386 44.5369 39.5718L42.7087 35.7312C42.4565 35.2008 42.0143 34.7845 41.4698 34.5646C40.9252 34.3447 40.3179 34.3372 39.7681 34.5437L38.9462 34.8562C35.8681 36.0125 33.99 38.875 34.4619 41.8687C35.0806 45.8093 36.365 50.8062 38.9712 54.9C41.39 58.6906 44.6525 61.8875 47.4525 64.2125C49.9619 66.3 53.665 65.9937 56.2306 63.575L57.1556 62.7C57.3804 62.4877 57.561 62.2332 57.687 61.9508C57.8131 61.6685 57.882 61.3641 57.8898 61.055C57.8977 60.746 57.8443 60.4384 57.7327 60.1501C57.6212 59.8617 57.4537 59.5983 57.24 59.375L54.7087 56.7375C54.5302 56.5512 54.3084 56.4121 54.063 56.3325C53.8176 56.2529 53.5563 56.2353 53.3025 56.2812L47.8962 57.275C47.6908 57.3128 47.4799 57.3091 47.2759 57.264C47.0719 57.2189 46.8791 57.1334 46.7087 57.0125L47.615 55.7375L47.6119 55.7406Z" fill="white"/>
<defs>
<linearGradient id="paint0_linear" x1="-6.21469" y1="12.0689" x2="122.105" y2="18.4943" gradientUnits="userSpaceOnUse">
<stop stop-color="#9C87C8"/>
<stop offset="1" stop-color="white" stop-opacity="0"/>
</linearGradient>
</defs>
</svg>
